<?xml version="1.0" encoding="UTF-8"?>
<svg id="Layer_1" xmlns="http://www.w3.org/2000/svg" version="1.1" viewBox="0 0 37 37">
  <!-- Generator: Adobe Illustrator 30.1.0, SVG Export Plug-In . SVG Version: 2.1.1 Build 136)  -->
  <defs>
    <style>
      .st0 {
        fill: none;
        stroke: #000;
        stroke-width: 1.5px;
      }
    </style>
  </defs>
  <rect class="st0" x=".8" y=".8" width="35.5" height="35.5"/>
  <path d="M30.4,6h-6.8c-.4,0-.8.3-.8.8s.3.8.8.8h4.9L7.2,28.9v-4.9c0-.4-.3-.8-.8-.8s-.8.3-.8.8v6.8c0,.4.3.8.8.8h6.8c.4,0,.8-.3.8-.8s-.3-.8-.8-.8h-4.9L29.6,8.6v4.9c0,.4.3.8.8.8s.8-.3.8-.8v-6.8c0-.4-.3-.8-.8-.8Z"/>
</svg>